<svg width="1090" height="224" viewBox="0 0 1090 224" fill="none" xmlns="http://www.w3.org/2000/svg">
<g clip-path="url(#clip0_1_80)">
<path d="M908.721 54.0993L920.172 54.0101L920.222 103.418C948.803 61.305 996.657 111.513 970.635 160.082C969.02 162.631 967.214 164.893 965.265 166.827C955.144 177.008 941.484 178.906 930.36 171.058C927.323 168.912 922.689 163.592 919.921 162.778C919.569 166.134 919.511 168.903 919.394 172.297C917.286 173.875 911.389 173.497 908.679 173.532L908.721 54.0993Z" fill="#272B2E"/>
<path d="M938.607 102.037C969.648 98.3825 977.05 149.281 948.042 161.749C914.425 163.044 908.67 113.984 938.607 102.037Z" fill="white"/>
<path d="M710.641 88.127C724.116 86.5512 727.863 90.212 739.021 101.346L740.184 100.817C740.36 97.5513 740.586 94.2915 740.862 91.0418C742.953 89.6429 748.992 90.1215 751.585 90.1444L751.618 173.288C744.952 173.537 740.1 175.531 739.9 162.43L738.954 162.273L735.291 167.364C722.468 177.615 706.55 179.716 694.196 166.649C687.856 160.066 683.573 149.814 682.343 138.288C679.315 109.375 693.092 91.7967 710.641 88.127Z" fill="#272B2E"/>
<path d="M710.758 102.003C743.613 96.8538 751.928 148.48 722.811 161.185C711.694 164.427 699.189 159.399 694.857 141.921C693.033 134.615 693.251 126.487 695.476 119.44C698.796 109.153 704.066 105.377 710.758 102.003Z" fill="white"/>
<path d="M853.941 88.1105C867.182 86.8567 870.528 90.506 881.385 101.616L882.523 100.734C882.732 97.5004 882.916 94.2635 883.075 91.0228C884.681 89.6621 891.498 90.128 893.807 90.1369C893.915 117.868 893.915 145.6 893.815 173.332C890.477 173.557 887.257 174.415 884.413 172.189C881.879 167.487 882.606 169.729 881.979 163.125C880.055 162.95 878.776 165.53 876.877 167.876C864.397 177.951 848.672 179.389 836.66 166.885C830.437 160.492 826.196 150.535 824.891 139.289C823.612 127.9 825.435 116.214 829.935 106.908C835.999 94.5296 844.297 90.0618 853.941 88.1105Z" fill="#272B2E"/>
<path d="M853.9 101.991C885.083 97.1936 894.852 147.924 865.309 161.205C834.862 169.371 823.662 115.956 853.9 101.991Z" fill="white"/>
<path d="M442.613 88.1537C451.73 86.364 462.945 89.4749 470.533 97.8326C476.727 104.514 480.859 114.749 481.98 126.172C483.008 136.616 481.26 147.257 477.12 155.73C470.705 168.726 461.979 173.087 451.863 175.146C407.183 184.878 395.029 97.177 442.613 88.1537Z" fill="#272B2E"/>
<path d="M441.49 101.992C472.695 97.0206 482.833 147.594 452.622 161.413C420.077 166.088 412.787 114.496 441.49 101.992Z" fill="white"/>
<path d="M584.328 88.1665C599.585 85.3916 614.097 94.8223 620.437 116.886C622.094 122.64 623.365 127.806 621.776 133.94C621.274 134.642 620.672 135.479 619.977 136.453C605.181 137.852 579.117 137.08 565.466 137.087C573.002 163.991 587.381 166.733 604.286 157.915L611.437 152.196L618.254 162.202C602.914 177.185 580.606 182.697 565.273 164.712C559.385 157.933 555.554 147.799 554.676 136.64C552.359 107.116 566.746 91.4288 584.328 88.1665Z" fill="#272B2E"/>
<path d="M587.289 100.872C601.065 100.014 606.477 107.467 611.195 126.102L591.362 126.057C582.814 126.141 574.257 126.132 565.7 126.033C570.2 107.939 574.809 103.309 587.289 100.872Z" fill="white"/>
<path d="M489.148 90.0643C496.576 90.0834 544.145 88.3217 547.591 92.1976L547.783 96.5191C545.65 105.849 513.765 149.432 506.764 159.199C518.315 159.488 537.194 158.4 547.833 160.131C549.49 163.733 549.097 168.262 548.754 172.742L547.307 173.904C538.992 173.507 493.498 175.336 489.223 171.715C489.048 170.44 488.847 169.205 488.905 167.888C489.441 157.035 524.07 113.76 531.188 104.074L489.248 103.615L489.148 90.0643Z" fill="#272B2E"/>
<path d="M1008.74 88.0697C1021.11 86.5626 1029.73 89.718 1040.75 97.5156L1036.07 108.932C1027.99 102.681 996.088 91.957 998.02 114.632C1004.55 127.788 1030.06 121.166 1039.48 134.304C1042.05 137.541 1043.99 141.474 1044 146.872C1044.06 172.446 1025.51 175.209 1013.52 175.713C1001.32 175.277 994.306 171.743 983.901 162.958L989.63 151.089C1000.86 162.256 1021.27 169.652 1031.95 153.564C1033.45 151.289 1033.18 150.831 1033.08 147.864C1028.98 140.411 1016.27 137.788 1009.96 136.892C979.685 132.583 975.745 96.1804 1008.74 88.0697Z" fill="#272B2E"/>
<path d="M648.191 62.5944C648.885 62.4391 649.086 62.7484 649.872 63.1417C650.751 69.4297 650.324 82.8038 650.249 89.741C655.945 90.0057 670.165 88.8308 674.723 90.9794C675.861 94.1921 675.434 97.4138 675.317 101.211C671.955 105.059 655.568 103.778 650.29 103.727C650.265 117.44 649.981 131.25 650.215 144.944C650.65 169.719 663.699 160.202 673.703 158.467C675.995 161.452 675.944 163.977 677.049 168.915L676.697 170.782C668.759 178.158 648.291 176.49 642.537 165.379C636.865 154.437 638.689 117.703 638.823 103.633C631.863 103.641 628.342 105.267 623.181 98.4435C622.88 88.0098 634.456 89.746 639.199 89.8313L639.023 65.3146L648.191 62.5944Z" fill="#272B2E"/>
<path d="M399.36 88.0149C404.787 88.0799 407.494 89.1758 412.714 91.2722C407.757 110.746 406.524 102.815 395.056 103.717C389.669 104.142 384.342 112.08 380.968 118.294C380.965 128.119 381.334 165.073 380.336 172.311L378.644 173.389C375.418 173.505 372.541 174.118 369.656 172.206C368.436 156.817 369.287 107.961 369.314 90.1444C372.546 90.1355 375.778 90.2106 379.008 90.3723C381.549 93.1611 379.232 95.8673 381.42 100.567C388.883 93.1001 390.382 90.4512 399.36 88.0149Z" fill="#272B2E"/>
<path d="M801.421 54.1057L812.78 54V173.463L801.387 173.515L801.421 54.1057Z" fill="#272B2E"/>
<path d="M282.424 24.706L282.797 25.2303C274.318 37.162 261.61 50.6113 252.273 63.4281C236.469 85.1212 222.261 106.725 205.98 128.021C164.111 135.813 126.065 140.073 83.63 142.787C59.4875 144.332 35.5152 146.69 11.2452 146.809L10.6745 146.311C14.7237 142.817 62.171 122.817 71.1747 118.789L282.424 24.706Z" fill="#38444A"/>
<path d="M327.88 81.1985C328.504 81.0627 329.216 81.182 329.904 81.2255C329.043 85.0259 309.011 108.563 305.188 112.817C265.5 156.975 220.345 196.244 172.63 231.474L171.41 232.3L170.848 231.736C193.579 187.118 226.08 133.245 253.688 91.7911C276.874 87.2638 304.237 82.9787 327.88 81.1985Z" fill="#272B2E"/>
<path d="M187.778 149.446L197.571 149.06C167.143 173.612 127.451 199.732 93.1543 218.803L85.8223 223.105C99.3148 196.472 109.991 177.301 129.39 153.986C148.822 152.106 168.288 150.592 187.778 149.446Z" fill="#272B2E"/>
</g>
<defs>
<clipPath id="clip0_1_80">
<rect width="1090" height="224" fill="white"/>
</clipPath>
</defs>
</svg>
