<svg width="942" height="224" viewBox="0 0 942 224" fill="none" xmlns="http://www.w3.org/2000/svg">
<path d="M795.228 98.5457L805.495 98.4932L805.54 127.612C831.168 102.792 874.075 132.383 850.743 161.008C849.295 162.51 847.675 163.843 845.927 164.983C836.852 170.983 824.605 172.102 814.63 167.477C811.908 166.212 807.753 163.076 805.27 162.597C804.955 164.575 804.903 166.207 804.798 168.207C802.908 169.137 797.62 168.914 795.19 168.935L795.228 98.5457Z" fill="#272B2E"/>
<path d="M822.025 126.798C849.857 124.645 856.495 154.642 830.485 161.99C800.342 162.754 795.182 133.84 822.025 126.798Z" fill="white"/>
<path d="M617.62 118.6C629.703 117.672 633.063 119.829 643.068 126.391L644.11 126.08C644.268 124.155 644.47 122.233 644.718 120.318C646.593 119.494 652.008 119.776 654.333 119.789L654.363 168.791C648.385 168.938 644.035 170.113 643.855 162.392L643.008 162.299L639.723 165.3C628.225 171.341 613.953 172.58 602.875 164.878C597.19 160.998 593.35 154.956 592.248 148.164C589.533 131.123 601.885 120.763 617.62 118.6Z" fill="#272B2E"/>
<path d="M617.725 126.778C647.185 123.744 654.64 154.17 628.532 161.658C618.565 163.569 607.353 160.605 603.468 150.305C601.833 145.999 602.028 141.209 604.023 137.055C607 130.993 611.725 128.767 617.725 126.778Z" fill="white"/>
<path d="M746.11 118.591C757.982 117.852 760.982 120.002 770.717 126.55L771.737 126.03C771.925 124.125 772.09 122.217 772.232 120.307C773.672 119.505 779.785 119.78 781.855 119.785C781.952 136.128 781.952 152.473 781.862 168.817C778.87 168.95 775.982 169.455 773.432 168.143C771.16 165.372 771.812 166.694 771.25 162.801C769.525 162.698 768.377 164.219 766.675 165.602C755.485 171.539 741.385 172.387 730.615 165.017C725.035 161.25 721.232 155.381 720.062 148.753C718.915 142.041 720.55 135.154 724.585 129.669C730.022 122.374 737.462 119.741 746.11 118.591Z" fill="#272B2E"/>
<path d="M746.073 126.771C774.033 123.944 782.793 153.842 756.303 161.67C729.003 166.482 718.96 135.002 746.073 126.771Z" fill="white"/>
<path d="M377.295 118.616C385.47 117.561 395.525 119.395 402.329 124.32C407.883 128.258 411.588 134.29 412.593 141.023C413.515 147.178 411.948 153.449 408.235 158.443C402.483 166.103 394.659 168.673 385.589 169.886C345.527 175.622 334.629 123.934 377.295 118.616Z" fill="#272B2E"/>
<path d="M376.288 126.772C404.267 123.842 413.357 153.648 386.269 161.792C357.088 164.548 350.551 134.141 376.288 126.772Z" fill="white"/>
<path d="M504.362 118.624C518.042 116.988 531.055 122.546 536.74 135.55C538.225 138.941 539.365 141.986 537.94 145.601C537.49 146.014 536.95 146.508 536.327 147.082C523.06 147.906 499.69 147.452 487.45 147.455C494.207 163.312 507.1 164.928 522.257 159.731L528.67 156.36L534.782 162.257C521.027 171.088 501.025 174.337 487.277 163.737C481.997 159.741 478.562 153.769 477.775 147.192C475.697 129.792 488.597 120.546 504.362 118.624Z" fill="#272B2E"/>
<path d="M507.017 126.112C519.37 125.606 524.223 129.999 528.453 140.981L510.67 140.955C503.005 141.005 495.333 140.999 487.66 140.941C491.695 130.277 495.827 127.548 507.017 126.112Z" fill="white"/>
<path d="M419.02 119.742C425.68 119.753 468.332 118.715 471.422 120.999L471.595 123.546C469.682 129.045 441.093 154.731 434.815 160.488C445.173 160.658 462.1 160.016 471.64 161.037C473.125 163.16 472.772 165.829 472.465 168.47L471.168 169.154C463.713 168.92 422.92 169.998 419.088 167.864C418.93 167.112 418.75 166.385 418.803 165.608C419.283 159.212 450.332 133.708 456.715 127.999L419.11 127.729L419.02 119.742Z" fill="#272B2E"/>
<path d="M884.913 118.567C895.998 117.678 903.73 119.538 913.608 124.134L909.415 130.862C902.17 127.178 873.565 120.858 875.297 134.221C881.155 141.975 904.023 138.072 912.475 145.816C914.778 147.723 916.517 150.041 916.525 153.223C916.577 168.295 899.943 169.923 889.195 170.22C878.253 169.963 871.967 167.881 862.637 162.703L867.775 155.708C877.847 162.289 896.148 166.648 905.718 157.167C907.068 155.826 906.827 155.556 906.737 153.807C903.055 149.415 891.663 147.869 886.008 147.341C858.858 144.801 855.325 123.347 884.913 118.567Z" fill="#272B2E"/>
<path d="M561.625 103.552C562.248 103.461 562.428 103.643 563.133 103.875C563.92 107.581 563.537 115.463 563.47 119.552C568.577 119.708 581.327 119.015 585.415 120.281C586.435 122.175 586.053 124.074 585.948 126.311C582.933 128.579 568.24 127.825 563.508 127.795C563.485 135.876 563.23 144.016 563.44 152.086C563.83 166.688 575.53 161.079 584.5 160.056C586.555 161.815 586.51 163.304 587.5 166.214L587.185 167.314C580.067 171.662 561.715 170.678 556.555 164.13C551.47 157.681 553.105 136.032 553.225 127.739C546.985 127.744 543.827 128.702 539.2 124.681C538.93 118.531 549.31 119.555 553.563 119.605L553.405 105.156L561.625 103.552Z" fill="#272B2E"/>
<path d="M338.512 118.534C343.378 118.573 345.806 119.219 350.486 120.454C346.041 131.931 344.936 127.257 334.653 127.789C329.823 128.039 325.047 132.717 322.021 136.38C322.018 142.17 322.35 163.95 321.454 168.215L319.938 168.851C317.045 168.919 314.465 169.28 311.878 168.154C310.784 159.084 311.547 130.29 311.571 119.789C314.469 119.784 317.367 119.828 320.264 119.924C322.542 121.567 320.465 123.162 322.426 125.932C329.118 121.531 330.462 119.97 338.512 118.534Z" fill="#272B2E"/>
<path d="M699.017 98.5495L709.203 98.4872V168.894L698.988 168.925L699.017 98.5495Z" fill="#272B2E"/>
<path d="M282.424 11.706L282.797 12.2303C274.318 24.162 261.61 37.6113 252.273 50.4281C236.469 72.1212 222.261 93.725 205.98 115.021C164.111 122.813 126.065 127.073 83.63 129.787C59.4875 131.332 35.5152 133.69 11.2452 133.809L10.6745 133.311C14.7237 129.817 62.171 109.817 71.1747 105.789L282.424 11.706Z" fill="#38444A"/>
<path d="M327.88 68.1985C328.504 68.0627 329.216 68.182 329.904 68.2255C329.043 72.0259 309.011 95.5629 305.188 99.8172C265.5 143.975 220.345 183.244 172.629 218.474L171.41 219.3L170.848 218.736C193.579 174.118 226.08 120.245 253.688 78.7911C276.874 74.2638 304.237 69.9787 327.88 68.1985Z" fill="#272B2E"/>
<path d="M187.778 136.446L197.571 136.06C167.143 160.612 127.451 186.732 93.1543 205.803L85.8223 210.105C99.3148 183.472 109.991 164.301 129.39 140.986C148.822 139.106 168.288 137.592 187.778 136.446Z" fill="#272B2E"/>
</svg>
