<svg width="619" height="92" viewBox="0 0 619 92" fill="none" xmlns="http://www.w3.org/2000/svg">
<path d="M492.228 10.5457L502.495 10.4932L502.54 39.6123C528.168 14.7925 571.075 44.3834 547.743 73.0082C546.295 74.5101 544.675 75.8431 542.927 76.9834C533.852 82.9834 521.605 84.1019 511.63 79.477C508.908 78.2122 504.753 75.0765 502.27 74.5971C501.955 76.5746 501.903 78.207 501.798 80.2069C499.908 81.1372 494.62 80.9144 492.19 80.9346L492.228 10.5457Z" fill="#272B2E"/>
<path d="M519.025 38.7984C546.857 36.6446 553.495 66.6422 527.485 73.9902C497.343 74.7539 492.182 45.8396 519.025 38.7984Z" fill="white"/>
<path d="M314.62 30.6004C326.703 29.6716 330.063 31.8292 340.068 38.391L341.11 38.0797C341.268 36.1547 341.47 34.2335 341.718 32.3183C343.593 31.4938 349.008 31.7759 351.333 31.7894L351.363 80.7914C345.385 80.9376 341.035 82.1132 340.855 74.3915L340.008 74.2993L336.723 77.3C325.225 83.3412 310.953 84.5798 299.875 76.8784C294.19 72.9984 290.35 66.9565 289.248 60.1636C286.533 43.1231 298.885 32.7631 314.62 30.6004Z" fill="#272B2E"/>
<path d="M314.725 38.7781C344.185 35.7436 351.64 66.1703 325.532 73.6579C315.565 75.5686 304.353 72.6053 300.468 62.3046C298.833 57.9985 299.028 53.2086 301.023 49.0548C304 42.9926 308.725 40.7668 314.725 38.7781Z" fill="white"/>
<path d="M443.11 30.5906C454.982 29.8517 457.982 32.0025 467.717 38.5501L468.737 38.0302C468.925 36.1247 469.09 34.217 469.232 32.307C470.672 31.5051 476.785 31.7797 478.855 31.7849C478.952 48.1284 478.952 64.4726 478.862 80.8169C475.87 80.9497 472.982 81.4553 470.432 80.1433C468.16 77.3721 468.812 78.6939 468.25 74.8012C466.525 74.6984 465.377 76.219 463.675 77.6016C452.485 83.5393 438.385 84.387 427.615 77.0172C422.035 73.2498 418.232 67.3811 417.062 60.7532C415.915 54.0414 417.55 47.1539 421.585 41.6694C427.022 34.3738 434.462 31.7407 443.11 30.5906Z" fill="#272B2E"/>
<path d="M443.073 38.7714C471.033 35.9439 479.793 65.8425 453.303 73.6699C426.003 78.4823 415.96 47.0016 443.073 38.7714Z" fill="white"/>
<path d="M74.2945 30.6161C82.4695 29.5613 92.5248 31.3948 99.3288 36.3205C104.883 40.2582 108.588 46.2904 109.593 53.0225C110.515 59.1778 108.948 65.4493 105.235 70.4433C99.4833 78.1027 91.6593 80.6728 82.5888 81.8859C42.5268 87.6218 31.6285 35.9341 74.2945 30.6161Z" fill="#272B2E"/>
<path d="M73.288 38.7721C101.267 35.8419 110.358 65.6482 83.269 73.7922C54.088 76.5476 47.551 46.1412 73.288 38.7721Z" fill="white"/>
<path d="M201.362 30.6236C215.042 28.9882 228.055 34.5463 233.74 47.55C235.225 50.9408 236.365 53.9858 234.94 57.601C234.49 58.0143 233.95 58.5079 233.327 59.0818C220.06 59.9063 196.69 59.4517 184.45 59.4554C191.207 75.312 204.1 76.9279 219.257 71.7306L225.67 68.3601L231.782 74.2573C218.027 83.0877 198.025 86.3367 184.277 75.7366C178.997 71.7412 175.562 65.7689 174.775 59.1921C172.697 41.7916 185.597 32.5464 201.362 30.6236Z" fill="#272B2E"/>
<path d="M204.017 38.1119C216.37 37.6063 221.223 41.9986 225.453 52.9813L207.67 52.9551C200.005 53.0046 192.333 52.9993 184.66 52.9408C188.695 42.2769 192.827 39.5478 204.017 38.1119Z" fill="white"/>
<path d="M116.02 31.7421C122.68 31.7534 165.332 30.7152 168.422 32.9995L168.595 35.5463C166.682 41.0452 138.093 66.7314 131.815 72.4876C142.173 72.6579 159.1 72.0165 168.64 73.0367C170.125 75.1597 169.773 77.8289 169.465 80.4696L168.168 81.1544C160.713 80.9204 119.92 81.9984 116.088 79.8642C115.93 79.1125 115.75 78.3848 115.803 77.6083C116.283 71.2123 147.333 45.7076 153.715 39.9987L116.11 39.7286L116.02 31.7421Z" fill="#272B2E"/>
<path d="M581.913 30.5666C592.998 29.6784 600.73 31.5381 610.608 36.1337L606.415 42.8621C599.17 39.1779 570.565 32.8576 572.297 46.2214C578.155 53.9753 601.023 50.0721 609.475 57.8155C611.778 59.7232 613.517 62.0413 613.525 65.2228C613.577 80.2947 596.942 81.9234 586.195 82.2205C575.252 81.9631 568.967 79.8806 559.637 74.7029L564.775 67.7081C574.847 74.2895 593.147 78.6481 602.717 69.1665C604.067 67.8259 603.827 67.5559 603.737 65.8072C600.055 61.4149 588.662 59.8687 583.007 59.3406C555.857 56.8012 552.325 35.3468 581.913 30.5666Z" fill="#272B2E"/>
<path d="M258.625 15.5524C259.248 15.4609 259.428 15.6432 260.133 15.875C260.92 19.5809 260.537 27.4631 260.47 31.5516C265.577 31.7076 278.327 31.0152 282.415 32.2815C283.435 34.1749 283.053 36.0737 282.948 38.3115C279.933 40.5793 265.24 39.8246 260.508 39.7946C260.485 47.8763 260.23 56.0158 260.44 64.0862C260.83 78.6878 272.53 73.0787 281.5 72.0562C283.555 73.8154 283.51 75.3038 284.5 78.2137L284.185 79.3142C277.067 83.6615 258.715 82.678 253.555 76.1297C248.47 69.6811 250.105 48.0316 250.225 39.7391C243.985 39.7436 240.827 40.7023 236.2 36.6806C235.93 30.5313 246.31 31.5546 250.563 31.6048L250.405 17.1556L258.625 15.5524Z" fill="#272B2E"/>
<path d="M35.512 30.5343C40.378 30.5726 42.8058 31.2185 47.4858 32.4541C43.0413 43.9311 41.9358 39.2567 31.6525 39.7886C26.8225 40.0392 22.0465 44.7173 19.021 48.3797C19.018 54.1704 19.3495 75.9497 18.454 80.2152L16.9375 80.8506C14.0448 80.9189 11.4648 81.2805 8.87806 80.1537C7.78381 71.084 8.54726 42.2897 8.57126 31.7894C11.4693 31.7841 14.3673 31.8284 17.2638 31.9237C19.5423 33.5673 17.4648 35.1622 19.426 37.9319C26.1175 33.5313 27.4615 31.9702 35.512 30.5343Z" fill="#272B2E"/>
<path d="M396.017 10.5495L406.203 10.4872V80.8941L395.988 80.9249L396.017 10.5495Z" fill="#272B2E"/>
</svg>
