<svg id="Layer_1" data-name="Layer 1" xmlns="http://www.w3.org/2000/svg" viewBox="130 405 740 192"><polygon points="363.18 409.2 136.94 508.83 304.04 507.22 363.18 409.2"/><path d="M338,471.86,266.18,590.8c66.35-38.52,137.31-123.38,137.31-123.38v-2Z"/><polygon points="298.54 516.36 250.06 518.08 208.39 575.49 280.84 544.88 298.54 516.36"/><path d="M446.22,485.24a24.9,24.9,0,0,0-4.1-.32q-8.19,0-11.13,7v34.61h-8.33V477.76h8.11l.13,5.63a13,13,0,0,1,11.63-6.54,8.49,8.49,0,0,1,3.69.64Z"/><path d="M450.78,501.68a28.73,28.73,0,0,1,2.81-12.88,21.06,21.06,0,0,1,7.84-8.84,21.37,21.37,0,0,1,11.47-3.11q10,0,16.11,6.9t6.15,18.34v.58a29,29,0,0,1-2.73,12.78,20.75,20.75,0,0,1-7.79,8.81A21.61,21.61,0,0,1,473,527.41q-9.92,0-16.06-6.89t-6.15-18.25Zm8.38,1q0,8.11,3.76,13a12.75,12.75,0,0,0,20.16-.07q3.75-5,3.74-13.95,0-8-3.8-13a12.12,12.12,0,0,0-10.12-5,12,12,0,0,0-10,4.92Q459.16,493.53,459.16,502.67Z"/><path d="M512.73,519.71h28.52v6.8h-38.7v-6.13l26.9-35.73H503v-6.89H539.9v5.9Z"/><path d="M570.14,527.41q-9.92,0-16.13-6.51t-6.22-17.42V502A29.22,29.22,0,0,1,550.56,489a21.58,21.58,0,0,1,7.75-8.92,19.48,19.48,0,0,1,10.79-3.23q9.51,0,14.78,6.27t5.27,17.93v3.47h-33q.18,7.22,4.22,11.65a13.22,13.22,0,0,0,10.25,4.44,14.47,14.47,0,0,0,7.48-1.81,18.79,18.79,0,0,0,5.36-4.77l5.09,4Q582.39,527.41,570.14,527.41Zm-1-43.71a11.12,11.12,0,0,0-8.47,3.68c-2.28,2.44-3.7,5.88-4.24,10.29h24.43V497c-.24-4.23-1.39-7.52-3.43-9.84A10.47,10.47,0,0,0,569.1,483.7Z"/><path d="M610.1,466v11.81h9.11v6.44H610.1v30.27a6.77,6.77,0,0,0,1.22,4.4c.81,1,2.19,1.47,4.15,1.47a20.16,20.16,0,0,0,4-.54v6.72a24.54,24.54,0,0,1-6.4.89q-5.58,0-8.42-3.38t-2.84-9.6V484.2h-8.88v-6.44h8.88V466Z"/><path d="M659,526.51a17.49,17.49,0,0,1-1.17-5.14,18.61,18.61,0,0,1-13.88,6,17.2,17.2,0,0,1-11.83-4.08A13.18,13.18,0,0,1,627.54,513a13.8,13.8,0,0,1,5.79-11.83q5.79-4.2,16.29-4.21h8.11v-3.83a9.38,9.38,0,0,0-2.61-7q-2.61-2.6-7.71-2.59a12.17,12.17,0,0,0-7.48,2.25,6.64,6.64,0,0,0-3,5.45h-8.38a11.55,11.55,0,0,1,2.59-7,17.65,17.65,0,0,1,7-5.38,23.69,23.69,0,0,1,9.76-2q8.43,0,13.2,4.22t5,11.6v22.44a27.45,27.45,0,0,0,1.71,10.68v.72Zm-13.84-6.35a14.66,14.66,0,0,0,7.44-2,12.27,12.27,0,0,0,5.09-5.27v-10H651.2q-15.33,0-15.32,9a7.6,7.6,0,0,0,2.61,6.13A10,10,0,0,0,645.2,520.16Z"/><path d="M711,526.51H702.7V457.3H711Z"/><path d="M754.47,526.51a17.49,17.49,0,0,1-1.17-5.14,18.58,18.58,0,0,1-13.88,6,17.18,17.18,0,0,1-11.82-4.08A13.18,13.18,0,0,1,723,513a13.8,13.8,0,0,1,5.79-11.83q5.79-4.2,16.29-4.21h8.11v-3.83a9.38,9.38,0,0,0-2.62-7q-2.61-2.6-7.7-2.59a12.15,12.15,0,0,0-7.48,2.25,6.62,6.62,0,0,0-3,5.45H724a11.49,11.49,0,0,1,2.59-7,17.65,17.65,0,0,1,7-5.38,23.67,23.67,0,0,1,9.75-2q8.43,0,13.21,4.22t5,11.6v22.44a27.45,27.45,0,0,0,1.71,10.68v.72Zm-13.83-6.35a14.65,14.65,0,0,0,7.43-2,12.3,12.3,0,0,0,5.1-5.27v-10h-6.54q-15.32,0-15.32,9a7.58,7.58,0,0,0,2.62,6.13A10,10,0,0,0,740.64,520.16Z"/><path d="M815.84,502.67q0,11.18-5.13,18a16.42,16.42,0,0,1-13.79,6.78q-9.24,0-14.28-6.53l-.41,5.63h-7.66V457.3h8.34v25.82q5-6.27,13.92-6.27t13.94,6.72q5.07,6.71,5.07,18.38Zm-8.33-.94q0-8.52-3.29-13.16a10.9,10.9,0,0,0-9.46-4.64q-8.25,0-11.85,7.66v21.09q3.83,7.65,11.94,7.66a10.83,10.83,0,0,0,9.32-4.64Q807.52,511.05,807.51,501.73Z"/><path d="M854.73,513.58a6.12,6.12,0,0,0-2.55-5.25q-2.53-1.87-8.87-3.22a42.47,42.47,0,0,1-10-3.25,14.31,14.31,0,0,1-5.5-4.5,10.78,10.78,0,0,1-1.78-6.22A12.64,12.64,0,0,1,831.05,481q5.07-4.14,13-4.15,8.29,0,13.46,4.29a13.61,13.61,0,0,1,5.16,10.94h-8.39a7.54,7.54,0,0,0-2.9-5.9A10.92,10.92,0,0,0,844,483.7a11.32,11.32,0,0,0-7.11,2,6.22,6.22,0,0,0-2.57,5.18,5,5,0,0,0,2.39,4.55q2.38,1.53,8.62,2.93a45,45,0,0,1,10.12,3.33,14.8,14.8,0,0,1,5.75,4.67,11.48,11.48,0,0,1,1.86,6.64,12.49,12.49,0,0,1-5.22,10.48q-5.24,3.94-13.56,3.94a24.61,24.61,0,0,1-10.37-2.07,16.87,16.87,0,0,1-7-5.79,14,14,0,0,1-2.55-8h8.34a8.63,8.63,0,0,0,3.36,6.65,13,13,0,0,0,8.27,2.46,13.42,13.42,0,0,0,7.59-1.92A5.87,5.87,0,0,0,854.73,513.58Z"/></svg>