<svg xmlns="http://www.w3.org/2000/svg" viewBox="0 0 263 159" width="263" height="159">
<path fill-rule="evenodd" clip-rule="evenodd" fill="#5CC5C3" d="M164.802 142.138L163.571 141.764L160.836 141.639L156.733 142.388L154.955 143.137L153.177 144.761L151.536 146.76L150.852 149.757L150.989 151.881L151.536 153.879L152.767 155.877L154.819 157.626L156.46 158.5L157.691 158.875L160.836 159L164.392 158.251L167.401 156.502L169.179 154.628L169.999 153.13L170.273 151.756V148.508L169.589 146.51L169.316 146.385L169.042 145.636L168.085 144.886L167.948 144.386L166.307 142.888L164.802 142.138ZM160.289 146.01L160.836 146.26L161.246 147.009L161.93 147.384V147.884L162.341 148.009L163.024 147.759L163.708 148.134V148.758L163.982 148.883V149.757H165.349L165.486 149.258L166.58 148.508L167.127 148.758L167.538 149.258V150.382L167.127 152.255L165.486 154.379L165.076 154.504L164.529 155.128L163.161 155.753L163.024 155.628L161.383 156.252L159.879 156.377L159.195 156.127H158.101L155.502 154.628L154.408 153.629L153.861 152.755L153.724 151.256L153.451 150.881L153.588 148.258L153.998 147.759L154.545 147.509L155.092 147.759L155.366 148.134V148.633L154.955 149.383V149.882L155.229 150.007L157.827 148.758L158.511 149.008L159.469 149.757L160.426 149.507L160.563 148.383L160.289 147.884L159.058 147.384L159.195 146.51L160.289 146.01ZM158.238 144.886L159.058 145.261V145.885L158.374 146.26L157.554 145.885V145.261L158.238 144.886ZM96.0094 135.394L95.3255 135.893L94.6417 136.143L94.3682 136.393V136.518L93.8211 136.767L93.6843 137.017V137.392L93.4108 137.767V138.766L93.274 138.891V139.39L93.4108 139.515V140.639L93.9579 141.139V141.264L94.6417 141.888L94.9152 142.013V142.388L95.7358 142.763H96.1461L96.2829 142.888L96.5564 142.763L97.1035 143.013H97.9241L98.0608 142.888L98.1976 143.013H98.8814L100.523 142.263L100.933 141.888L101.343 141.139L101.48 140.639L101.754 140.515V139.141L101.89 139.016V138.516L102.027 138.391L101.89 137.642L101.48 137.267H101.343L101.206 137.017L100.523 136.393H100.386L99.9756 135.893L98.8814 135.394H98.3344L98.1976 135.269H97.9241L97.7873 135.394L97.5138 135.269H96.9667L96.8299 135.394H96.0094ZM193.66 135.144L192.292 135.019L191.608 134.644L190.788 134.769L189.42 134.145L188.189 134.394L187.505 134.02L186.822 134.394L186.548 134.269L184.223 135.518L183.95 135.893V136.518L183.539 137.142L182.992 137.517L182.855 138.141L182.172 138.766L181.077 140.39L181.351 143.387L181.898 144.012V144.511L182.855 145.76L185.18 146.885H185.864L186.275 147.134H186.685L187.369 146.76H187.779L188.736 146.26L190.104 145.885L191.745 144.511L192.292 144.262V143.512L192.976 143.013V142.638L193.797 142.263L194.07 141.639L194.754 141.264L195.301 138.766L195.164 137.767L194.891 137.642V137.392L194.617 137.142L194.48 135.643L193.66 135.144ZM131.158 128.399L129.79 129.024V129.273L129.107 129.898L128.149 130.273L127.739 130.772L127.465 133.77L127.192 134.269L127.329 137.392L127.602 138.016L128.149 138.516L128.423 139.39L128.833 139.64L129.107 140.515L129.654 140.764L129.927 141.139L131.568 141.888L131.979 141.764L132.936 142.263L134.44 142.138L134.988 142.263L136.082 141.888L136.218 142.013L138.407 140.889L141.005 138.391L141.689 137.142L141.963 134.394L140.185 131.771L140.048 131.022L138.133 129.523L136.902 128.899L135.535 128.774L134.988 128.524L133.483 128.649L133.073 128.399L132.252 128.524L131.979 128.399L131.568 128.649L131.158 128.399ZM147.433 126.401L146.886 126.65L146.476 127.025H146.339L146.066 127.275V127.525L145.518 128.149V128.524L145.382 128.649V129.273L145.245 129.398V129.898L145.382 130.023V131.272L145.518 131.397V132.271L145.792 132.521L146.749 133.02L147.16 133.395V133.52L148.801 134.269H149.348L150.989 133.52V132.896L151.263 132.646L152.22 132.271V132.146L152.493 131.896V131.522L152.904 131.147V130.772L153.177 130.397L153.041 128.649L152.357 127.4L151.946 127.275L151.673 127.025L150.579 126.526H150.305L150.168 126.401H148.527L148.391 126.276L148.254 126.401H147.433ZM114.746 125.651V125.776L114.062 126.151L113.515 126.65V126.9L113.105 127.15L112.421 128.649L112.558 130.897L112.695 131.022V131.522L112.968 131.771L113.105 132.271L113.652 132.896L115.02 133.895L115.704 134.02L116.114 134.269L116.251 134.145L116.661 134.269L116.934 134.145L117.071 134.269L117.345 134.145L118.302 134.269L118.986 134.02H119.67L120.901 133.395V133.02L121.174 132.896L121.858 131.896L122.268 131.647V131.397L122.542 131.147V128.774L122.268 128.399V127.775H122.132L121.448 127.15V126.775H121.311L120.901 126.151L120.08 125.526H119.396L118.849 125.277H118.439L118.302 125.401L118.165 125.277H116.524L116.251 125.152L115.84 125.401L115.704 125.277L115.293 125.526L114.746 125.651ZM69.8872 120.78L69.7504 120.905H69.2033L69.0666 121.03L67.9724 121.155L67.4254 121.529L67.0151 121.654V121.779L66.1945 122.404L65.2371 123.903V126.026L65.5107 126.276V126.65L66.0577 127.275L66.1945 127.775L67.5621 128.274L67.8357 128.649L68.3827 129.024L69.0666 128.899L69.2033 129.024L70.7077 129.398L71.2548 129.148H71.6651L73.0328 128.524L73.9901 127.899L74.1269 127.275L74.4004 127.025V126.775L74.6739 126.65V126.151L74.8107 126.026V125.401L74.9475 125.277V125.027L74.8107 124.902V124.152L74.6739 124.027V123.778H74.5372L73.9901 123.153L73.8534 122.529L73.1695 121.779L72.7592 121.654L72.2122 121.28H71.8019L71.3916 121.03H70.9813L70.571 120.78H69.8872ZM81.2387 118.407L80.5549 118.782L79.324 119.031L79.1872 119.156V119.406L78.6401 119.781L78.5034 120.28L78.3666 120.405V120.655L78.2298 120.78V121.405L78.0931 121.529V122.029L77.9563 122.154V123.278L78.0931 123.403V123.778L78.3666 124.152V124.402L78.6401 124.777V125.027L79.0504 125.401L79.7343 125.651L79.871 125.776V126.026L80.4181 126.151L80.5549 126.276H81.1019L81.2387 126.151L81.3755 126.276L82.196 126.401L82.8799 126.026H83.4269L84.3843 125.526L84.9314 125.401L85.2049 124.902L85.8887 124.652V124.527L86.1622 124.277V123.903L86.4358 123.778V123.528L86.299 123.403V122.778L86.4358 122.654V121.654L86.299 121.529V121.28L85.7519 120.655L85.4784 120.156V119.906L85.2049 119.781V119.531L84.9314 119.281L84.5211 119.156L83.974 118.782H83.1534L82.7431 118.532L82.4696 118.657L82.0593 118.407H81.2387ZM97.7873 110.913L95.8726 111.912L95.4623 112.911L95.052 113.161L94.9152 113.661L94.5049 114.035L94.3682 114.66L93.6843 115.284L93.1373 116.658L93.0005 120.655L93.4108 121.779L94.2314 122.154L94.9152 122.778V123.153L96.2829 124.652L99.0182 125.776L100.386 126.026H102.164L102.848 125.651L104.489 125.277L105.993 124.527L106.814 123.778L106.951 123.278L108.318 122.404V122.029L109.002 121.405L109.276 120.655V115.784L108.729 114.66L107.224 113.536L106.677 112.412L104.899 111.163H104.079L103.668 110.913H101.48L100.933 110.663L100.112 110.913L99.155 110.663L98.1976 111.163L97.7873 110.913ZM48.415 106.916V109.414L48.8253 109.664L49.2356 110.413L49.5091 110.538L49.7826 111.038V111.537L50.6032 111.662L51.5606 112.162L52.9282 112.537L54.1591 112.412L54.9797 112.037L55.39 112.162L57.0312 111.412L57.168 111.038L57.8518 110.663L59.7665 110.413L60.1768 110.163L61.1342 110.288L61.6812 110.038L62.6386 109.914L64.0062 109.039L64.2798 108.04L64.143 105.667L63.4592 103.918L62.6386 103.419L62.5018 103.544L62.0915 103.294L60.5871 103.044H59.3562L59.2194 103.169L59.0827 103.044L58.9459 103.169L57.8518 103.044L56.4841 103.294L54.1591 103.044L54.0224 103.169H52.5179L52.1076 103.419H51.6973L50.1929 104.168L48.6885 105.792L48.415 106.916ZM97.2402 101.42V101.67L97.5138 101.795V103.169L97.7873 103.419L98.1976 104.668H98.3344L98.7447 105.167L99.8388 105.667L100.523 106.167H100.933L101.07 106.042L101.206 106.167H101.48L101.617 106.042L101.89 106.167H102.437L103.121 105.917L103.258 106.042H103.531L104.352 105.667L104.489 105.792H104.762L104.899 105.667L105.309 105.917H105.993L106.677 105.417L107.361 105.167V104.918L107.634 104.793L107.908 104.043L108.455 103.669L108.318 102.794L107.771 102.295L106.814 101.795H106.54L105.993 101.545L105.583 101.67L104.762 101.295L104.489 100.796V100.046L104.079 99.6716L103.395 99.5467L102.027 98.7973L101.343 98.9222L100.933 98.6724H100.659L99.155 99.2969L97.7873 100.921V101.17L97.2402 101.42ZM36.1061 96.9238H35.8326L35.6958 97.0487H35.1487L35.012 96.9238L34.7384 97.0487H34.1914L33.5075 97.4234H33.0972L32.4134 97.6732V97.923L31.7296 98.4226V98.9222L31.4561 99.172V99.4218L31.1825 99.7965V102.544L31.4561 102.669L31.5928 103.544L32.1399 103.793L32.2766 104.293L34.0546 105.042L34.3281 105.417L34.6017 105.542L35.012 105.292L35.2855 105.417H35.8326L37.4737 104.668L37.7473 104.418L38.7046 104.043L38.9782 103.669L39.662 103.169V102.794L39.7988 102.669L39.9355 100.421L39.7988 100.296V99.172L38.9782 98.1728V97.923L38.4311 97.6732H38.1576L37.2002 97.1736H36.5164L36.1061 96.9238ZM4.78679 83.5593H4.51326L4.37649 83.6842H3.00884L2.59854 83.934H2.05148L1.50442 84.1838V84.3087L1.23089 84.5585L0.820593 84.6834V84.8083L0.547062 85.0581L0.410296 85.5577L0.136765 85.8075V87.806L0 87.9309V88.1807L0.136765 88.3056V89.1799L0.683827 89.8044V90.304L1.64119 90.8036V91.0534L2.32501 91.3032L3.00884 91.8028L3.14561 91.6779L3.28237 91.8028L3.69267 91.553L3.9662 91.6779H4.92356L5.60738 91.3032L6.15445 91.1783L6.97504 90.5538L7.5221 90.304L7.65887 89.8044L7.9324 89.5546V89.1799L8.47946 88.5554V86.9317L8.06916 86.6819V86.4321L7.79563 86.3071V85.9324L7.38534 85.3079L7.24857 84.5585L6.70151 84.1838L5.88092 84.0589L4.78679 83.5593ZM54.4327 81.6858L51.1503 81.436L48.415 81.8107L46.7738 82.5601L46.2267 83.1846L45.2694 83.5593L44.4488 84.5585V85.0581L44.1752 85.183L44.0385 85.8075L43.0811 87.0566L42.9444 90.4289L43.3547 91.0534V91.4281L44.5855 92.5522L44.7223 93.0518L45.5429 94.0511V94.4258L46.09 94.9254L48.2782 95.7997L49.5091 95.9246L50.1929 96.2993L50.74 96.0495L51.9709 96.1744L54.843 95.5499L55.6635 95.1752L56.7577 94.176L58.8092 91.8028L59.2194 89.1799V87.806L58.9459 87.5562L58.8092 86.3071L58.2621 85.9324L58.1253 85.3079L57.8518 85.0581V84.1838L57.4415 83.934L57.3047 83.5593L56.0738 82.5601L54.4327 81.6858ZM66.8783 81.3111L65.7842 81.9356L65.6474 81.8107L65.1004 82.0605V82.4352L64.8268 82.685V83.6842L64.2798 84.0589L64.143 85.8075L63.7327 86.3071V86.9317L63.4592 87.1815V87.4313L63.3224 87.5562V88.1807L63.5959 88.4305V89.1799L63.8695 89.4297L64.0062 89.8044L65.1004 90.8036V90.9285L65.5107 91.1783V91.6779L65.7842 91.8028H66.468L66.6048 91.9277H67.8357L67.9724 91.8028L68.1092 91.9277H68.6563L69.0666 91.6779H69.6136L71.118 90.8036L71.2548 89.5546L71.5283 89.3048V88.3056L71.3916 88.1807V86.1822L71.118 85.8075V85.4328L70.8445 85.3079V85.0581L70.4342 84.6834V84.3087L69.7504 83.8091L69.6136 83.0597L68.9298 82.8099L68.1092 81.9356L67.4254 81.6858L66.8783 81.3111ZM16.2751 66.6976L13.5398 67.0723L13.2663 67.1972L13.1295 67.447L12.1721 67.8217L11.8986 68.0715V68.3213L11.078 68.9458V69.3205L10.8045 69.5703V69.945L10.5309 70.3197L10.3942 72.8178L10.6677 73.0676V73.6921L11.3515 74.3166V74.6913L11.8986 75.066V75.3158L12.1721 75.4407L12.4457 75.8154L12.9927 76.1901L14.0868 76.5648H14.9074L15.0442 76.6897H15.8648L16.0016 76.5648L16.4119 76.6897L17.0957 76.315H17.7795L17.9163 76.1901L18.7369 76.0652L19.9678 75.4407V74.8162L20.2413 74.5664L20.5148 73.1925L21.0619 72.568V72.0683L20.9251 71.9434L21.0619 70.3197L20.9251 70.0699L20.3781 69.6952L19.9678 68.5711L19.6942 68.4462V68.0715L17.6427 67.0723H17.0957L16.2751 66.6976ZM34.7384 63.4501L34.3281 63.6999L33.0972 63.8248L31.5928 64.824V65.0738L30.4987 66.198V66.8225L30.0884 67.1972L29.9516 67.9466L29.6781 68.1964V68.9458L29.9516 69.3205V70.5695L30.3619 71.4438L30.7722 71.6936L31.3193 72.6929L33.234 73.817L35.4223 73.9419L35.559 74.0668L37.0634 73.6921H37.884L38.2943 73.4423L39.2517 73.1925L39.7988 72.6929V72.443L41.5767 70.6944L41.7135 67.8217L41.1664 66.198L40.209 65.5734V65.1987L39.1149 64.3244V64.0746L37.4737 63.575L37.0634 63.6999L36.2428 63.4501L36.1061 63.575H35.012L34.7384 63.4501ZM56.4841 60.4525L55.6635 61.077L54.4327 61.5766L53.2018 62.7007V62.9505L52.1076 64.1995L51.6973 65.5734L51.5606 68.5711L51.6973 69.6952L52.3812 70.4446L52.9282 71.8185L54.843 73.4423L55.8003 73.9419L58.8092 74.8162H59.7665L60.1768 74.5664L60.9974 74.8162L61.9548 74.6913L65.6474 73.0676L65.921 72.568L66.468 72.3181L67.2886 70.8193L68.1092 70.0699V69.4454L68.5195 68.9458L68.246 65.9482L67.5621 63.9497L66.6048 63.4501L66.1945 62.8256L65.5107 62.5758L64.9636 61.7015L64.5533 61.5766L64.0062 60.8272L63.1856 60.2027L61.1342 60.3276L60.7239 60.0778L57.9886 60.2027L57.168 60.5774L56.4841 60.4525ZM86.5725 50.3354L81.5122 50.4603L78.7769 51.4595L74.9475 55.7062V56.9552L74.4004 57.3299L74.6739 60.7023L76.999 62.9505L78.0931 66.3229L75.0842 67.3221L74.5372 69.1956L75.221 72.9427L73.7166 74.3166L71.9386 78.0636L73.1695 81.6858L76.4519 83.5593L78.5034 83.6842L79.1872 83.3095L80.9652 83.8091L82.8799 82.5601L83.8372 80.8115L85.2049 79.8123L84.9314 77.1893L81.5122 73.6921L78.5034 72.6929L79.324 70.6944V68.4462L78.6401 66.4478L79.324 66.0731L80.5549 66.5727L86.0255 66.3229L88.7608 65.5734L92.3167 62.5758L92.8638 60.8272L93.6843 60.4525L93.9579 58.5789L93.1373 55.3315L90.402 52.3339L86.5725 50.3354ZM30.4987 44.8397H29.6781L29.5413 44.9647L29.4046 44.8397H28.7207L28.584 44.9647L27.3531 45.0896L25.9854 45.7141V46.0888L25.7119 46.2137L25.4384 46.7133V47.4627L25.1648 47.8374V49.8358L25.3016 49.9607V50.3354L25.5751 50.7101V50.9599L25.9854 51.3346V51.5844H26.1222L26.3957 51.9592L27.6266 52.5837H27.9002L28.0369 52.7086L28.4472 52.5837L29.131 52.9584L29.2678 52.8335H29.8149L30.3619 52.5837L30.4987 52.7086L30.7722 52.5837L30.909 52.7086L31.5928 52.3339L32.1399 52.209L32.5502 51.8343L33.3708 51.4595V51.2097L33.7811 50.9599V50.7101L34.1914 50.4603L34.3281 49.7109L34.4649 49.586V49.2113L34.6017 49.0864V48.337L34.4649 48.0872L33.7811 47.7125V46.9631L32.9605 46.3386L32.2766 45.4643L31.3193 45.0896H30.909L30.4987 44.8397ZM43.2179 43.9654L42.6708 44.2152V44.3401L41.8502 44.9647L41.7135 45.4643L41.3032 45.839V46.2137L41.1664 46.3386V46.9631L41.0296 47.088V48.8366L41.1664 48.9615V49.2113L41.4399 49.4611V49.8358L41.7135 49.9607L41.8502 50.3354L42.3973 50.835L43.3547 51.2097L43.6282 51.4595L44.1752 51.5844L44.312 51.7093L44.4488 51.5844L44.5855 51.7093H45.9532L46.09 51.8343H46.3635L46.9106 51.5844L47.4576 51.0848L47.8679 50.9599L48.2782 50.5852L48.415 50.0856L48.6885 49.9607L48.962 49.4611V48.337L49.0988 48.2121V47.2129L49.2356 47.088V46.7133L49.0988 46.4635L48.5517 46.0888L48.0047 45.0896L47.1841 44.465V44.2152L46.3635 43.8405L46.09 43.9654L45.9532 43.8405H45.5429L45.4061 43.7156H44.5855L44.0385 43.9654H43.2179ZM59.6297 38.3449L59.0827 38.7196L58.9459 39.0943L57.168 40.0935V40.3433L56.6209 40.718V41.3425L55.6635 42.4666L55.39 43.216L55.2532 45.839L55.39 47.088L55.6635 47.5876L56.2106 47.9623L56.6209 48.9615L57.4415 49.8358L57.715 50.4603L58.6724 51.0848L59.0827 51.7093L60.8606 52.4588L62.2283 52.7086L62.6386 52.5837L63.3224 52.8335L64.9636 52.5837L65.2371 52.7086L67.8357 51.9592L69.7504 50.0856L70.1607 49.9607V49.3362L70.8445 48.4619L70.9813 47.8374L71.5283 47.3378L71.6651 46.7133L71.9386 46.5884L72.0754 44.5899L71.8019 44.2152V43.216L70.7077 42.0919L70.571 41.4674L68.6563 39.3441L67.0151 38.3449L65.2371 37.8452H61.9548L61.4077 38.0951L60.8606 37.9701L59.9033 38.4698L59.6297 38.3449ZM79.324 36.9709L78.9137 37.2207L78.3666 37.3456L78.0931 37.7203L77.6828 37.8452L77.546 38.3449L76.5887 38.9694V39.3441L76.1784 39.9686V41.2176L76.5887 41.4674V41.8421L76.7254 41.967V42.8413L77.1357 43.216L77.6828 43.4658L78.2298 44.0903L79.324 44.5899H80.1446L80.5549 44.8397H81.649L81.7857 44.7148L82.0593 44.8397L83.2902 44.2152L83.8372 44.0903L84.3843 43.3409L84.5211 42.9662L84.9314 42.5915V42.3417L85.2049 41.8421V41.4674L85.3417 41.3425V40.9678L85.4784 40.8429V40.2184L85.6152 40.0935V39.8437L85.4784 39.7188V39.0943L84.7946 38.7196V38.3449L84.6578 38.22L83.974 37.9701L83.7005 37.5954L82.8799 37.2207H82.6063L82.0593 36.9709L81.7857 37.0958L81.649 36.9709H80.9652L80.8284 36.846L80.1446 37.0958H79.5975L79.324 36.9709ZM51.1503 25.9796L50.3297 26.3543V26.6041L49.7826 26.8539V27.1037L49.6459 27.2286L49.5091 28.4776L49.0988 28.9772V29.227L49.2356 29.3519V30.1013L49.0988 30.2262V30.6009L49.2356 30.7258V31.3504L49.7826 31.7251L49.9194 32.2247L50.8768 32.5994L51.0135 32.8492L51.5606 32.9741L52.5179 33.4737H53.2018L53.3385 33.5986H53.6121L54.1591 33.3488H54.5694L55.1165 32.9741L56.0738 32.5994V32.3496L57.0312 31.85V30.8507L57.168 30.7258V30.2262L57.3047 30.1013V28.2278L57.168 28.1029L57.0312 27.4784L56.4841 27.1037L56.3474 26.6041L55.6635 26.1045L54.5694 25.9796L54.4327 25.8547H54.0224L53.8856 25.7298L53.6121 25.8547H52.9282L52.6547 25.7298L52.2444 25.9796H51.1503ZM113.515 23.6064L113.379 24.106L112.968 24.4808V24.9804L112.558 25.7298L112.284 25.8547V26.1045L112.421 26.2294V27.2286L112.284 27.3535V27.7282L112.421 27.8531L112.558 29.1021H112.695L113.515 29.9764V30.1013H113.652L114.062 30.476L114.336 30.6009L115.43 30.7258L115.84 30.9756H116.387L116.524 31.1006L116.661 30.9756H116.934L117.071 31.1006L117.208 30.9756L117.482 31.1006L117.892 30.8507H118.165L118.302 30.9756L118.986 30.6009H119.533L119.67 30.476L119.807 30.6009L120.08 30.476V29.9764L120.49 29.4768V28.7274L120.901 28.2278V27.2286L121.174 26.9788V26.6041L120.901 26.3543V26.1045L120.627 25.9796V25.8547L119.533 24.7306V24.3559L119.259 24.106L119.123 23.7313L118.439 23.3566H118.029L117.892 23.2317H117.071L116.524 22.9819L115.84 23.2317H114.883L114.746 23.3566H114.199L113.515 23.6064ZM157.144 21.1084L156.049 21.8578L155.639 22.3574L154.819 22.9819V23.2317L154.545 23.4815L154.408 23.8562V25.48L154.545 25.6049V26.2294L154.682 26.3543V27.1037L155.092 27.8531V28.1029L155.639 28.3527L155.913 28.8523L156.323 28.9772L156.596 29.227V29.6017L157.007 29.8515L157.417 29.7266L158.374 30.2262H158.785L158.921 30.3511H159.332L159.469 30.2262L159.742 30.3511L160.152 30.1013H161.657L162.341 29.7266L162.751 29.8515L163.571 29.4768V28.6025L163.845 28.4776L164.119 28.1029L164.255 26.6041L164.392 26.4792V24.4808L164.255 24.3559L164.119 23.1068H163.982L163.161 22.2325V21.9827L161.93 21.4831L161.52 20.9835L161.246 20.8586L160.973 20.9835L160.289 20.6088H159.469L159.332 20.7337L158.511 20.6088L157.827 20.9835L157.144 21.1084ZM73.0328 18.2357L72.3489 18.6104H71.5283L70.9813 18.9851L69.8872 19.3598L69.7504 19.7345L68.9298 20.359L68.6563 21.2333L68.246 21.7329V22.1076L68.3827 22.2325V23.2317L68.246 23.6064L68.3827 23.7313L68.5195 24.7306L68.9298 25.6049V25.9796L69.7504 26.729L70.0239 27.2286L72.0754 28.2278H72.7592L73.7166 28.4776L74.1269 28.3527L74.2636 28.4776L74.6739 28.2278H75.0842L75.221 28.3527L76.3151 27.8531L77.2725 27.7282L77.6828 27.3535L78.3666 27.1037L78.5034 26.4792L79.4607 25.48V23.8562L79.5975 23.7313L79.4607 21.8578L79.0504 21.2333V20.8586L78.7769 20.6088V20.359L77.9563 19.7345V19.4847L77.2725 19.2349L76.999 18.8602L76.4519 18.6104H75.7681L74.9475 18.2357H74.5372L74.4004 18.3606L74.1269 18.2357L73.7166 18.3606L73.0328 18.2357ZM263 80.187L213.354 39.0943L211.713 34.0982L203.781 35.597L204.738 28.7274L196.122 32.3496L196.395 20.4839L184.77 14.1139L178.479 17.1115L175.607 26.4792L179.436 32.0998L190.378 35.7219L181.488 36.0966L177.111 43.8405L176.154 32.0998L165.623 29.7266L157.28 42.5915L158.238 48.8366L165.897 50.3354L163.982 53.8327L152.63 48.7117L155.366 44.5899L150.305 45.9639L153.041 35.7219L144.561 27.6033L135.671 28.7274L129.79 37.3456L119.943 35.8468L124.046 43.7156L121.721 46.0888L107.361 41.967L108.318 35.2223L102.848 28.1029L92.4535 28.4776L88.2137 38.4698L93.8211 43.7156L106.13 43.5907L106.54 54.2074L98.6079 53.2082L96.2829 58.7039L100.933 61.5766L107.087 58.2042L114.883 65.5734L105.036 68.3213L94.7785 64.9489L89.1711 68.1964L87.9402 80.8115L96.9667 87.806L93.4108 92.6771L87.1196 88.4305L78.6401 89.055L73.4431 99.6716L76.8622 105.292L84.3843 106.666L91.3593 103.544L93.8211 94.8005L103.395 94.4258L114.473 104.293L119.533 119.531L125.414 120.655L126.371 115.409L130.748 114.285L144.288 123.403L153.724 114.66L147.16 103.419L157.964 100.671L160.836 105.542L155.502 111.537L157.554 114.535L168.085 113.661L171.641 117.158L160.973 119.531L156.87 129.898L161.11 136.268L168.632 137.642L178.342 131.272L176.564 120.031L183.676 121.654L188.873 132.396L197.9 131.397L200.498 125.027L209.525 128.899L219.372 120.156L219.509 115.159L231.544 111.537L263 80.187ZM189.967 122.404L191.335 121.779L191.472 121.529V120.78L192.155 120.405L193.66 121.28H194.617L194.754 121.155L195.438 121.28L195.711 121.155L195.848 121.28L196.532 121.405L197.626 121.904L197.763 122.154L198.036 122.279L198.31 122.154L198.857 122.404L199.541 122.903V123.778L199.678 123.903V124.402L198.994 124.777L198.583 124.527H197.9L197.763 124.402H197.489L197.353 124.527H196.806L196.669 124.652H196.258L196.122 124.777L195.301 124.652L194.344 125.152H193.933L193.797 125.027H192.566L192.429 124.902H191.745L191.608 124.777L191.198 124.902L191.061 124.777H190.651L189.967 124.402V123.778L190.241 123.653V123.153L189.967 122.903V122.404ZM191.472 117.408L192.155 117.658L192.429 117.907V118.782L191.745 119.156L190.925 118.782L190.514 118.407V117.907L191.472 117.408ZM166.58 103.918H166.854L167.538 104.293V104.793H167.674L167.948 105.042V105.792L167.674 105.917L167.401 106.291L166.854 106.541L166.17 106.167V105.792L165.897 105.542V105.167L165.623 104.918V104.418L166.58 103.918ZM141.142 99.7965L141.826 99.4218L142.236 99.6716L142.373 99.5467L142.646 99.6716L142.783 99.5467H143.467L143.877 99.7965L144.151 99.6716L144.835 100.046V100.671L144.288 100.921V101.17L144.561 101.295L144.698 101.17H144.971L145.929 101.67V102.544L146.339 102.794V103.294L145.655 103.669L145.108 103.544L144.561 103.793L143.741 103.419L143.33 102.919L142.92 102.794L142.646 102.544L141.552 102.17L141.279 101.92V101.67L141.142 101.545V99.7965ZM191.335 99.4218L191.882 99.172L192.429 99.4218L192.839 99.7965V100.796L193.113 100.921L193.797 100.546L194.48 100.921V102.669L194.207 102.919L193.523 103.169L192.976 102.919L192.703 103.044L192.019 102.669V101.92L191.745 101.795V101.295L192.019 101.17V100.921L191.335 100.671L191.061 100.421V99.7965L191.335 99.4218ZM198.447 98.0479L199.131 98.4226V98.9222L198.447 99.2969L197.763 98.9222V98.4226L198.447 98.0479ZM132.115 97.5483L132.663 97.2985L132.799 97.4234L133.346 97.2985L133.757 97.5483L134.167 97.2985H134.577L134.714 97.1736H135.535L136.492 97.6732L136.902 98.0479V98.1728H137.039L138.133 99.172L138.27 99.4218V99.9214L138.407 100.046V101.17L138.543 101.295V101.795L138.68 102.045L139.501 102.419V102.919L139.227 103.169H139.09V103.793L138.817 104.043L137.996 104.418H137.723L137.313 104.668L136.765 104.418L136.355 104.043V103.918L135.535 103.544V102.669H135.398L135.261 102.544V102.295L134.577 101.795L134.44 101.42L133.893 101.17L133.483 100.671L133.346 100.171L133.21 100.046V99.4218L132.936 99.172L132.389 99.0471L131.705 98.6724V98.1728L132.115 97.5483ZM163.024 93.8013L163.571 93.5515L164.119 93.8013L164.529 94.176V94.4258L165.897 95.7997V96.1744L166.307 96.674V97.2985L168.222 98.1728V99.0471L168.085 99.172L167.401 99.4218L166.444 98.9222L166.307 99.0471H166.033L164.939 98.5475H163.571L163.435 98.4226L163.024 98.6724L162.204 98.7973L161.52 99.172L160.836 98.7973V98.0479L161.11 97.923V96.9238L161.52 96.5491V96.0495L161.794 95.7997V95.3001L162.341 94.6756V94.5507L162.614 94.3009H162.751V94.0511L163.024 93.8013ZM138.954 86.8068L139.774 87.1815L140.048 87.4313V87.9309L139.774 88.4305V88.8052L139.501 89.055L139.227 89.5546V89.9293L138.68 90.5538L138.133 90.8036L137.176 90.304V90.1791L136.765 89.6795V89.4297L136.218 89.055V88.5554H136.082L135.808 88.3056V87.806L136.082 87.6811L136.218 87.4313L137.586 86.8068L137.86 86.9317L138.954 86.8068ZM102.848 85.3079L104.079 85.8075L104.352 86.0573L104.215 87.806L103.942 87.9309L103.805 88.1807L103.395 88.3056L103.258 88.5554V88.9301L103.942 89.4297V90.0542L103.258 90.4289L102.301 90.0542L101.89 89.6795V89.4297L101.343 89.1799V88.5554L101.07 88.4305H100.659L99.2917 87.6811V87.1815L99.5653 86.9317L99.9756 86.8068L100.249 86.4321L100.796 86.1822L101.07 86.3071H101.48L102.027 85.9324H102.164V85.6826L102.848 85.3079ZM124.046 84.4336L124.867 84.8083H125.277L125.414 84.9332L125.824 84.8083L127.465 85.5577H128.012L128.149 85.6826L129.107 85.8075L130.611 86.4321L130.885 86.6819V87.4313L131.021 87.5562L130.885 88.6803L130.474 89.055L129.79 89.3048L129.654 89.9293L129.38 90.1791L129.243 90.6787L128.833 91.0534L128.696 91.553L128.149 91.9277L127.876 92.4273V93.5515L127.739 93.8013L127.465 93.9262V94.5507L126.645 95.0503L126.235 94.8005L125.824 94.9254L124.73 94.4258L124.457 94.176V92.9269L124.593 92.802L124.73 91.0534L124.457 90.6787V90.304L124.046 89.8044V89.4297L123.91 89.3048V88.8052L124.183 88.6803L124.046 88.0558L123.773 87.806L123.636 87.0566L122.679 86.3071L122.542 85.9324V85.183L124.046 84.4336ZM147.843 78.1885L148.801 78.6881L148.938 79.0628H149.074L149.348 79.3126V79.8123L149.074 79.9372V80.3119L148.938 80.4368L147.57 80.9364L146.886 80.5617V78.9379L147.296 78.4383L147.843 78.1885ZM203.233 77.0644H203.644L203.781 76.9395H204.875L205.695 77.3142L205.832 77.4391V77.6889L206.379 78.0636L206.516 78.3134V78.6881L206.653 78.813V79.6874L205.969 80.4368L204.875 80.9364H204.601L204.191 80.6866H203.917L203.37 80.4368L203.097 79.9372L202.003 79.4376V77.9387L202.55 77.6889V77.4391L203.233 77.0644ZM223.748 76.6897L224.295 76.9395L224.979 77.4391V77.9387L224.842 78.0636V78.3134L225.116 78.5632V79.3126L224.842 79.4376L224.706 79.6874V80.187L224.432 80.4368L223.338 80.9364H222.517L221.97 80.6866L221.697 80.187L221.013 79.6874V79.3126L220.876 79.1877V78.0636L221.15 77.8138L222.517 77.1893H222.791L223.748 76.6897ZM144.971 70.5695L145.655 70.1948L146.202 70.4446H146.476L146.613 70.3197L146.749 70.4446H147.433L147.57 70.5695H147.98L148.664 70.9442V71.194L149.348 71.4438L149.621 71.6936V72.0683L149.758 72.1932V73.0676L149.074 73.4423L148.801 73.3174L148.527 73.4423L148.117 73.1925L147.023 73.4423L146.476 73.1925L146.066 72.8178L145.245 72.443L144.971 72.1932V70.5695ZM172.324 67.1972V68.3213L172.598 68.5711V69.4454L172.324 69.945L171.777 70.1948H171.23L170.957 70.3197V70.4446L170.683 70.6944L170.136 70.9442L167.674 69.8201V69.0707L168.222 68.8209V68.4462L168.358 68.3213L169.042 68.0715L169.316 67.8217V67.6968L169.863 67.3221L170.41 67.0723L170.683 67.1972L171.504 66.8225L172.324 67.1972ZM134.03 61.8264V62.326L133.346 62.7007H132.936L132.663 62.5758L131.705 63.0754H131.021L130.611 63.3252H130.201L129.79 63.0754L128.286 63.8248H128.012L127.876 63.9497L127.739 63.8248L127.055 64.1995L126.371 63.9497L126.098 63.6999V63.0754L126.371 62.9505L126.918 62.326L127.465 62.0762L127.602 62.2011L127.876 62.0762V61.8264L128.56 61.4517V61.2019L128.423 61.077V60.5774L128.56 60.3276L128.833 60.2027V59.2035L129.107 58.9537L129.517 58.8288V58.7039L129.79 58.454L130.611 58.0793H130.885L131.568 58.454V58.9537L131.842 59.2035V59.5782L131.979 59.7031V59.9529L132.252 60.2027L132.389 60.8272H132.526L132.936 61.3268L134.03 61.8264ZM191.061 56.7054L192.155 57.3299L192.703 58.2042L192.976 58.3291V59.0786L193.113 59.2035V60.0778L191.198 60.9521L190.651 60.8272L190.514 60.7023H189.83L189.283 60.4525L189.01 60.2027V59.828L188.873 59.7031V58.8288L189.01 58.5789L189.283 58.3291H189.42V58.0793L190.241 57.3299H190.378V57.0801L191.061 56.7054ZM201.319 53.7078L202.003 54.0825V54.5821L201.729 54.8319L201.182 55.0817H200.908L199.951 55.5813V55.8311L199.814 55.956V56.4556L199.678 56.5805V56.9552L199.814 57.0801V57.4548L199.951 57.5797V58.2042L199.404 58.454V58.8288L198.72 59.2035L198.036 58.8288V58.2042L197.626 57.5797V57.3299L197.353 56.9552V56.7054L197.079 56.3307L196.669 56.2058L196.258 55.8311L196.122 55.5813V54.9568L197.9 54.0825H198.994L199.131 53.9576H199.951L200.088 54.0825L200.772 53.7078H201.319ZM145.929 48.337V49.0864L145.245 49.4611L145.108 49.3362L144.561 49.586L144.424 49.8358L143.741 50.0856V50.3354L143.604 50.4603L142.783 50.835L141.963 50.4603V49.8358L142.099 49.586L142.373 49.3362H142.51V48.9615L142.92 48.4619L143.467 48.2121L143.604 48.337L144.561 47.8374L145.108 48.0872L145.245 47.9623L145.929 48.337ZM133.62 45.0896L134.304 45.4643L134.851 45.2145L135.535 45.5892V46.3386L135.808 46.4635L136.218 46.2137H136.492L137.039 46.4635L137.313 46.7133V47.3378L137.586 47.5876L137.723 48.337L137.996 48.5868V49.8358L137.313 50.2105H137.039L136.902 50.3354H135.808L135.671 50.2105L135.261 50.4603L134.167 49.9607V49.4611L133.893 49.2113V48.8366L133.62 48.4619V47.8374H133.483L133.073 47.4627V46.3386L132.936 46.2137V45.4643L133.62 45.0896ZM129.654 37.5954L130.611 38.0951V38.9694L130.337 39.2192L129.79 39.469L128.97 39.0943V37.9701L129.654 37.5954ZM103.531 9.86724L102.164 10.4918L101.89 10.7416L101.754 11.1163L101.48 11.3661H101.343V11.6159L101.206 11.7408V12.2404L101.07 12.3653V12.74L100.933 12.8649V13.3645L101.07 13.4894V13.989L101.206 14.1139V14.8633L101.343 15.1131L101.617 15.238L101.754 15.6127L102.027 15.7376V15.9874L102.164 16.1123L103.258 16.6119H103.668L103.942 16.487L104.626 16.8617H105.036L105.173 16.7368L105.72 16.8617L106.677 16.3621L106.951 16.487L107.361 16.3621V16.2372L107.771 15.8625V15.7376L108.318 15.4878L108.865 14.6135V13.6143L109.002 13.4894V12.74L108.729 12.3653V11.8657H108.592L108.318 11.6159V11.491L107.498 10.6167V10.4918L106.814 10.2419L106.677 9.99214L106.404 9.86724H105.446L105.309 9.74234H104.352L104.215 9.86724H103.531ZM130.201 7.74391L129.927 8.24352L127.465 9.61744V9.99214L126.371 11.2412V11.8657L125.824 12.74L125.414 14.6135L125.824 17.4863L126.098 17.7361L126.235 18.8602L128.833 21.4831L131.021 22.6072L131.568 22.4823L132.252 22.857L132.799 22.7321L134.44 23.1068L135.535 22.9819L136.082 23.2317L136.765 22.857L137.313 23.1068H138.407L139.09 22.7321H139.911L142.099 21.4831L142.373 20.4839L142.92 20.2341L143.057 19.7345L143.877 19.2349L144.561 16.9866V13.2396L144.288 12.9898L144.151 11.9906L143.193 10.7416V10.3669L139.774 7.86881L137.039 6.8696H132.936L130.201 7.74391ZM161.657 0.499607L158.511 2.62294L158.374 3.24745L157.554 3.74705L157.007 5.24588L156.46 5.74548L156.596 6.7447L156.323 6.8696L156.049 8.11862L156.87 12.2404L157.554 12.8649L157.827 13.7392L158.511 14.2388L159.469 15.7376L161.794 17.3614L164.255 17.861H167.811L170.41 17.1115L174.786 13.2396V12.8649L175.744 11.7408L176.154 10.3669V7.61901L175.47 5.49568L175.06 5.24588L173.692 3.12255L173.145 2.87274L172.735 2.24823L169.316 0.499607L167.538 0.124902L167.127 0.249804L166.717 0L163.161 0.124902L162.067 0.624509L161.657 0.499607Z"/>
</svg>
